<svg xmlns="http://www.w3.org/2000/svg" width="1116" height="951" viewBox="0 0 1116 951">
<defs>
  <filter id="shadow" x="-20%" y="-20%" width="160%" height="160%">
    <feDropShadow dx="10" dy="10" stdDeviation="9" flood-color="#546479" flood-opacity="0.35"/>
  </filter>
</defs>
<path d="M 98.0 135.0 L 1026.0 135.0 L 1033.0 455.0 L 1068.0 505.0 L 1033.0 550.0 L 1046.0 585.0 L 1023.0 607.0 L 1026.0 636.0 L 984.0 660.0 L 948.0 654.0 L 920.0 678.0 L 875.0 689.0 L 835.0 712.0 L 788.0 719.0 L 748.0 737.0 L 703.0 735.0 L 658.0 752.0 L 610.0 754.0 L 565.0 772.0 L 520.0 758.0 L 477.0 780.0 L 433.0 785.0 L 390.0 804.0 L 343.0 809.0 L 297.0 830.0 L 246.0 842.0 L 198.0 855.0 L 150.0 869.0 L 108.0 904.0 L 81.0 853.0 L 28.0 794.0 L 114.0 723.0 L 71.0 676.0 L 98.0 135.0 Z" fill="#fafafa" stroke="#b9c1cb" stroke-width="3" filter="url(#shadow)"/>
<path d="M 926.0 409.5 L 922.5 399.0 L 919.0 388.5 L 915.0 378.5 L 910.5 369.0 L 906.5 359.0 L 901.5 350.0 L 896.5 341.0 L 891.0 332.5 L 885.0 324.5 L 879.0 316.5 L 872.0 309.5 L 865.0 302.5 L 857.5 296.0 L 850.0 289.5 L 841.5 284.0 L 833.0 278.5 L 824.0 273.5 L 815.0 268.5 L 805.0 264.5 L 794.0 261.5 L 783.0 258.5 L 771.0 256.5 L 757.0 256.5 L 744.0 257.5 L 731.5 259.0 L 721.0 262.5 L 710.5 266.0 L 701.0 270.5 L 692.0 275.5 L 684.0 281.5 L 676.0 287.5 L 669.0 294.5 L 662.5 302.0 L 656.0 309.5 L 650.0 317.5 L 644.5 326.0 L 639.5 335.0 L 635.5 345.0 L 631.0 354.5 L 627.5 365.0 L 624.5 376.0 L 621.5 387.0 L 619.5 399.0 L 614.5 393.0 L 608.5 385.0 L 602.0 377.5 L 596.0 369.5 L 588.5 363.0 L 581.5 356.0 L 573.5 350.0 L 575.5 340.0 L 579.5 330.0 L 577.5 318.0 L 575.5 306.0 L 573.5 294.0 L 571.5 282.0 L 569.5 270.0 L 566.5 259.0 L 565.0 246.5 L 562.5 235.0 L 560.0 223.5 L 558.5 211.0 L 557.0 201.5 L 560.5 202.0 L 563.0 213.5 L 564.5 226.0 L 567.5 237.0 L 571.5 232.0 L 568.5 223.0 L 567.5 210.0 L 564.5 199.0 L 560.5 189.0 L 557.5 189.0 L 554.0 189.5 L 549.5 183.0 L 542.0 189.5 L 536.5 186.0 L 526.0 189.5 L 515.0 192.5 L 506.5 193.0 L 504.0 189.5 L 508.0 184.5 L 517.0 179.5 L 526.5 175.0 L 536.0 170.5 L 545.5 166.0 L 555.5 162.0 L 566.0 158.5 L 563.0 148.5 L 553.0 152.5 L 543.0 156.5 L 533.0 160.5 L 523.0 164.5 L 512.0 167.5 L 502.0 171.5 L 492.0 175.5 L 482.0 179.5 L 471.5 183.0 L 461.0 186.5 L 450.5 190.0 L 439.5 193.0 L 428.5 196.0 L 420.0 193.5 L 419.0 189.5 L 428.0 184.5 L 439.0 181.5 L 449.0 177.5 L 458.5 173.0 L 451.0 168.5 L 440.0 171.5 L 446.0 166.5 L 457.0 163.5 L 468.0 160.5 L 478.0 156.5 L 488.5 153.0 L 498.5 149.0 L 509.0 145.5 L 519.0 141.5 L 528.5 137.0 L 525.5 135.0 L 515.5 139.0 L 504.5 142.0 L 494.0 145.5 L 483.0 148.5 L 472.5 152.0 L 463.0 156.5 L 452.5 157.0 L 461.5 152.0 L 471.0 147.5 L 481.0 143.5 L 490.5 139.0 L 501.0 135.5 L 511.0 131.5 L 521.0 127.5 L 531.5 124.0 L 541.5 120.0 L 552.0 116.5 L 556.5 109.0 L 546.0 109.5 L 537.5 115.0 L 527.0 118.5 L 516.0 121.5 L 521.0 115.5 L 530.5 111.0 L 541.0 107.5 L 553.0 105.5 L 553.0 94.5 L 549.5 84.0 L 547.5 72.0 L 544.5 61.0 L 542.5 49.0 L 542.5 37.0 L 542.5 25.0 L 548.5 32.0 L 553.5 41.0 L 558.5 50.0 L 563.5 59.0 L 567.5 69.0 L 571.5 79.0 L 575.0 89.5 L 578.5 100.0 L 585.0 105.5 L 594.0 100.5 L 600.0 97.5 L 602.0 100.5 L 612.0 96.5 L 622.0 92.5 L 632.5 89.0 L 642.0 84.5 L 649.0 81.5 L 659.0 77.5 L 667.0 77.5 L 677.0 73.5 L 684.0 72.5 L 685.5 79.0 L 680.0 85.5 L 671.0 90.5 L 662.0 95.5 L 652.5 100.0 L 642.5 104.0 L 633.0 108.5 L 623.5 113.0 L 614.0 117.5 L 604.0 121.5 L 603.0 127.5 L 613.0 123.5 L 622.5 119.0 L 633.0 115.5 L 643.0 111.5 L 653.0 107.5 L 663.0 103.5 L 675.0 101.5 L 687.0 101.5 L 682.0 107.5 L 673.0 112.5 L 665.0 118.5 L 656.5 124.0 L 649.0 130.5 L 640.0 135.5 L 629.5 139.0 L 621.0 144.5 L 611.0 148.5 L 601.5 153.0 L 599.5 163.0 L 602.5 174.0 L 605.5 185.0 L 608.0 196.5 L 610.5 208.0 L 613.0 219.5 L 612.5 223.0 L 608.5 213.0 L 604.5 206.0 L 606.5 218.0 L 608.5 230.0 L 611.0 241.5 L 615.0 251.5 L 621.0 243.5 L 627.5 236.0 L 634.0 228.5 L 641.0 221.5 L 648.5 215.0 L 656.5 209.0 L 665.5 204.0 L 675.0 199.5 L 685.0 195.5 L 696.0 192.5 L 708.0 190.5 L 721.0 189.5 L 734.0 190.5 L 746.0 192.5 L 757.0 195.5 L 768.0 198.5 L 778.5 202.0 L 788.0 206.5 L 797.0 211.5 L 806.0 216.5 L 815.0 221.5 L 822.5 228.0 L 830.5 234.0 L 838.0 240.5 L 845.5 247.0 L 852.5 254.0 L 859.0 261.5 L 865.5 269.0 L 871.5 277.0 L 877.5 285.0 L 883.0 293.5 L 888.5 302.0 L 893.5 311.0 L 898.5 320.0 L 903.0 329.5 L 907.5 339.0 L 911.5 349.0 L 914.5 360.0 L 918.5 370.0 L 921.5 381.0 L 923.5 393.0 L 926.5 404.0 Z" fill="#a13321"/>
<path d="M 631.5 137.0 L 632.0 136.5 L 633.0 136.5 L 634.0 136.5 L 634.5 136.0 L 635.0 135.5 L 636.0 135.5 L 636.5 135.0 L 637.0 134.5 L 638.0 134.5 L 638.5 134.0 L 639.0 133.5 L 640.0 133.5 L 640.5 133.0 L 640.5 132.0 L 640.5 131.0 L 640.0 130.5 L 639.0 130.5 L 638.0 130.5 L 637.5 131.0 L 637.0 131.5 L 636.0 131.5 L 635.0 131.5 L 634.5 132.0 L 634.0 132.5 L 633.0 132.5 L 632.5 133.0 L 632.0 133.5 L 631.0 133.5 L 630.5 134.0 L 630.0 134.5 L 629.0 134.5 L 628.5 135.0 L 628.5 136.0 L 628.5 137.0 L 629.0 137.5 L 630.0 137.5 L 631.0 137.5 L 631.5 137.0 Z" fill="#a13321"/>
<path d="M 609.5 139.0 L 610.0 138.5 L 611.0 138.5 L 612.0 138.5 L 612.5 138.0 L 612.5 137.0 L 613.0 136.5 L 614.0 136.5 L 614.5 136.0 L 614.5 135.0 L 614.5 134.0 L 614.5 133.0 L 614.0 132.5 L 613.0 132.5 L 612.0 132.5 L 611.5 133.0 L 611.0 133.5 L 610.0 133.5 L 609.5 134.0 L 609.0 134.5 L 608.0 134.5 L 607.5 135.0 L 607.0 135.5 L 606.5 136.0 L 606.0 136.5 L 605.0 136.5 L 604.5 137.0 L 604.5 138.0 L 604.5 139.0 L 605.0 139.5 L 606.0 139.5 L 607.0 139.5 L 608.0 139.5 L 609.0 139.5 L 609.5 139.0 Z" fill="#a13321"/>
<path d="M 593.5 146.0 L 593.5 145.0 L 593.5 144.0 L 593.5 143.0 L 594.0 142.5 L 594.5 142.0 L 594.5 141.0 L 594.5 140.0 L 594.0 139.5 L 593.0 139.5 L 592.0 139.5 L 591.5 140.0 L 591.0 140.5 L 590.5 141.0 L 590.5 142.0 L 590.5 143.0 L 590.5 144.0 L 590.5 145.0 L 590.5 146.0 L 591.0 146.5 L 592.0 146.5 L 593.0 146.5 L 593.5 146.0 Z" fill="#a13321"/>
<path d="M 596.0 728.5 L 588.5 727.0 L 582.0 724.5 L 575.0 722.5 L 568.0 720.5 L 562.0 717.5 L 555.0 715.5 L 548.5 713.0 L 542.0 710.5 L 535.5 708.0 L 529.0 705.5 L 523.0 702.5 L 517.0 699.5 L 510.5 697.0 L 504.0 694.5 L 498.0 691.5 L 492.0 688.5 L 486.0 685.5 L 480.0 682.5 L 474.0 679.5 L 468.0 676.5 L 462.0 673.5 L 456.0 670.5 L 450.0 667.5 L 444.0 664.5 L 438.0 661.5 L 432.5 658.0 L 426.5 655.0 L 421.0 651.5 L 415.5 648.0 L 410.0 644.5 L 404.0 641.5 L 398.5 638.0 L 393.0 634.5 L 387.5 631.0 L 382.0 627.5 L 377.0 623.5 L 371.5 620.0 L 366.0 616.5 L 361.0 612.5 L 355.5 609.0 L 350.0 605.5 L 345.0 601.5 L 340.0 597.5 L 335.0 593.5 L 330.0 589.5 L 325.0 585.5 L 320.0 581.5 L 315.5 577.0 L 310.5 573.0 L 305.5 569.0 L 301.0 564.5 L 296.5 560.0 L 292.0 555.5 L 287.5 551.0 L 283.0 546.5 L 278.5 542.0 L 274.5 537.0 L 270.5 532.0 L 266.5 527.0 L 262.5 522.0 L 258.5 517.0 L 254.5 512.0 L 251.0 506.5 L 247.5 501.0 L 244.0 495.5 L 241.0 489.5 L 237.5 484.0 L 234.5 478.0 L 232.0 471.5 L 229.5 465.0 L 227.5 458.0 L 225.0 451.5 L 223.0 444.5 L 221.5 437.0 L 219.5 430.0 L 218.5 422.0 L 217.5 414.0 L 217.5 405.0 L 217.5 396.0 L 217.5 387.0 L 218.5 379.0 L 219.5 371.0 L 220.5 363.0 L 222.0 355.5 L 223.5 348.0 L 226.0 341.5 L 228.5 335.0 L 231.0 328.5 L 233.5 322.0 L 237.0 316.5 L 240.0 310.5 L 243.5 305.0 L 247.0 299.5 L 251.0 294.5 L 255.0 289.5 L 259.0 284.5 L 263.5 280.0 L 268.0 275.5 L 273.0 271.5 L 278.0 267.5 L 283.0 263.5 L 288.0 259.5 L 294.0 256.5 L 299.5 253.0 L 305.5 250.0 L 312.0 247.5 L 318.0 244.5 L 325.0 242.5 L 331.5 240.0 L 339.0 238.5 L 346.5 237.0 L 354.5 236.0 L 363.0 235.5 L 371.0 234.5 L 380.0 234.5 L 388.0 235.5 L 396.0 236.5 L 404.0 237.5 L 412.0 238.5 L 419.0 240.5 L 426.0 242.5 L 433.0 244.5 L 440.0 246.5 L 446.0 249.5 L 453.0 251.5 L 459.0 254.5 L 465.0 257.5 L 471.0 260.5 L 476.5 264.0 L 482.0 267.5 L 488.0 270.5 L 493.5 274.0 L 498.5 278.0 L 504.0 281.5 L 509.0 285.5 L 514.0 289.5 L 519.0 293.5 L 524.0 297.5 L 528.5 302.0 L 533.5 306.0 L 537.5 311.0 L 542.5 315.0 L 547.0 319.5 L 551.0 324.5 L 555.5 329.0 L 557.5 333.0 L 552.5 329.0 L 547.0 325.5 L 542.0 321.5 L 536.0 318.5 L 530.5 315.0 L 524.5 312.0 L 518.0 309.5 L 512.0 306.5 L 505.0 304.5 L 498.0 302.5 L 491.0 300.5 L 483.5 299.0 L 476.0 297.5 L 467.5 297.0 L 459.0 296.5 L 450.0 296.5 L 442.0 297.5 L 433.0 297.5 L 425.5 299.0 L 418.0 300.5 L 411.0 302.5 L 404.0 304.5 L 397.0 306.5 L 391.0 309.5 L 385.0 312.5 L 379.0 315.5 L 373.0 318.5 L 367.5 322.0 L 362.0 325.5 L 357.5 330.0 L 352.5 334.0 L 347.5 338.0 L 343.5 343.0 L 339.0 347.5 L 335.0 352.5 L 331.5 358.0 L 327.5 363.0 L 324.5 369.0 L 321.5 375.0 L 318.5 381.0 L 316.0 387.5 L 314.0 394.5 L 312.5 402.0 L 310.5 409.0 L 309.5 417.0 L 309.5 426.0 L 309.5 435.0 L 310.5 443.0 L 311.5 451.0 L 312.5 459.0 L 314.5 466.0 L 316.5 473.0 L 319.0 479.5 L 321.5 486.0 L 324.5 492.0 L 327.0 498.5 L 330.0 504.5 L 333.5 510.0 L 336.5 516.0 L 340.5 521.0 L 344.0 526.5 L 348.0 531.5 L 351.5 537.0 L 355.5 542.0 L 359.5 547.0 L 364.0 551.5 L 368.0 556.5 L 372.5 561.0 L 376.5 566.0 L 381.0 570.5 L 385.5 575.0 L 390.5 579.0 L 395.0 583.5 L 399.5 588.0 L 404.5 592.0 L 409.0 596.5 L 414.0 600.5 L 419.0 604.5 L 424.0 608.5 L 429.0 612.5 L 434.0 616.5 L 439.5 620.0 L 444.5 624.0 L 450.0 627.5 L 455.0 631.5 L 460.5 635.0 L 466.0 638.5 L 471.5 642.0 L 476.5 646.0 L 482.0 649.5 L 488.0 652.5 L 493.5 656.0 L 499.0 659.5 L 504.5 663.0 L 510.0 666.5 L 516.0 669.5 L 522.0 672.5 L 528.0 675.5 L 533.5 679.0 L 539.5 682.0 L 545.5 685.0 L 551.5 688.0 L 558.0 690.5 L 564.0 693.5 L 570.5 696.0 L 577.0 698.5 L 583.0 701.5 L 590.0 703.5 L 596.5 706.0 L 603.0 708.5 L 610.0 710.5 L 616.5 713.0 L 623.5 715.0 L 618.0 718.5 L 612.0 721.5 L 606.0 724.5 L 599.5 727.0 Z" fill="#a13321"/>
<path d="M 572.5 251.0 L 572.5 250.0 L 572.5 249.0 L 572.5 248.0 L 572.5 247.0 L 572.5 246.0 L 572.0 245.5 L 571.5 245.0 L 571.5 244.0 L 571.5 243.0 L 571.5 242.0 L 571.5 241.0 L 571.0 240.5 L 570.0 240.5 L 569.0 240.5 L 568.5 241.0 L 568.5 242.0 L 568.5 243.0 L 568.5 244.0 L 568.5 245.0 L 569.0 245.5 L 569.5 246.0 L 569.5 247.0 L 569.5 248.0 L 569.5 249.0 L 569.5 250.0 L 569.5 251.0 L 570.0 251.5 L 571.0 251.5 L 572.0 251.5 L 572.5 251.0 Z" fill="#a13321"/>
<path d="M 587.5 262.0 L 587.5 261.0 L 587.5 260.0 L 587.0 259.5 L 586.5 259.0 L 586.5 258.0 L 586.5 257.0 L 586.5 256.0 L 586.5 255.0 L 586.5 254.0 L 586.0 253.5 L 585.5 253.0 L 585.5 252.0 L 585.5 251.0 L 585.5 250.0 L 585.5 249.0 L 585.0 248.5 L 584.5 248.0 L 584.5 247.0 L 584.5 246.0 L 584.5 245.0 L 584.5 244.0 L 584.0 243.5 L 583.0 243.5 L 582.0 243.5 L 581.5 244.0 L 581.0 244.5 L 580.0 244.5 L 579.0 244.5 L 578.5 245.0 L 578.5 246.0 L 578.5 247.0 L 578.5 248.0 L 579.0 248.5 L 579.5 249.0 L 579.5 250.0 L 579.5 251.0 L 579.5 252.0 L 579.5 253.0 L 579.5 254.0 L 579.5 255.0 L 579.5 256.0 L 579.5 257.0 L 580.0 257.5 L 580.5 258.0 L 580.5 259.0 L 580.5 260.0 L 580.5 261.0 L 581.0 261.5 L 581.5 262.0 L 582.0 262.5 L 583.0 262.5 L 584.0 262.5 L 585.0 262.5 L 586.0 262.5 L 587.0 262.5 L 587.5 262.0 Z" fill="#a13321"/>
<path d="M 583.5 302.0 L 583.5 301.0 L 583.5 300.0 L 583.5 299.0 L 583.5 298.0 L 583.0 297.5 L 582.5 297.0 L 582.5 296.0 L 582.5 295.0 L 582.0 294.5 L 581.5 294.0 L 581.5 293.0 L 581.5 292.0 L 581.5 291.0 L 581.5 290.0 L 581.5 289.0 L 581.0 288.5 L 580.5 288.0 L 580.5 287.0 L 580.5 286.0 L 580.5 285.0 L 580.5 284.0 L 580.5 283.0 L 580.5 282.0 L 580.5 281.0 L 580.5 280.0 L 580.0 279.5 L 579.5 279.0 L 579.5 278.0 L 579.5 277.0 L 579.5 276.0 L 579.5 275.0 L 579.5 274.0 L 580.0 273.5 L 581.0 273.5 L 581.5 273.0 L 581.5 272.0 L 581.5 271.0 L 581.5 270.0 L 581.0 269.5 L 580.5 269.0 L 580.0 268.5 L 579.0 268.5 L 578.0 268.5 L 577.5 269.0 L 577.0 269.5 L 576.0 269.5 L 575.5 270.0 L 575.5 271.0 L 575.5 272.0 L 575.5 273.0 L 575.5 274.0 L 575.5 275.0 L 575.5 276.0 L 575.5 277.0 L 575.5 278.0 L 576.0 278.5 L 576.5 279.0 L 576.5 280.0 L 576.5 281.0 L 577.0 281.5 L 577.5 282.0 L 577.5 283.0 L 577.5 284.0 L 577.5 285.0 L 577.5 286.0 L 577.5 287.0 L 577.5 288.0 L 577.5 289.0 L 578.0 289.5 L 578.5 290.0 L 578.5 291.0 L 578.5 292.0 L 578.5 293.0 L 578.5 294.0 L 578.5 295.0 L 578.5 296.0 L 578.5 297.0 L 579.0 297.5 L 579.5 298.0 L 579.5 299.0 L 579.5 300.0 L 580.0 300.5 L 580.5 301.0 L 580.5 302.0 L 581.0 302.5 L 582.0 302.5 L 583.0 302.5 L 583.5 302.0 Z" fill="#a13321"/>
</svg>